<svg width="396" height="234" viewBox="0 0 396 234" fill="none" xmlns="http://www.w3.org/2000/svg">
<path d="M119.5 21.6C119.1 22 118.1 21.6 117.3 20.7C116.5 19.9 116.2 18.8 116.6 18.4C117 18.1 117.3 17.4 117.4 16.7C117.6 15.5 117.4 14.1 116.5 12.7C115.7 11.3 114.2 9.9 111.9 8.5C95.4 -0.800003 62.9 7.29999 46.8 14.8C39.1 18.4 20.2 29.1 25.4 40.1C27.8 45.3 36.2 48.2 44.4 51C49.1 52.7 53.8 54.3 57.7 56.5C86 72.4 50.7 106.6 22.9 107.1C12.8 107.6 1 102.8 0.8 92.7C0.7 88.1 4.3 82.1 13.2 75C13.6 74.6 14.6 75.1 15.4 76C16.2 76.8 16.5 77.9 16 78.2C7.4 85.1 4 90.7 4.1 94.8C4.2 101.2 15.3 101.9 19.7 101.7C44 101.1 79 71.2 58.1 59.4C54.6 57.5 50.1 55.9 45.5 54.3C36 51 26.3 47.7 22.5 39.6C16.4 26.5 33.9 15.1 43.5 10.6C60.7 2.59999 93.9 -4.4 111.5 5.6C115.1 7.69999 117.6 10.2 119 12.7C120.5 15.1 120.9 17.4 120.7 19.1C120.5 20.2 120.1 21.1 119.5 21.6ZM95.2578 59.4C95.6578 60.4 95.3578 61 94.5578 60.8C93.7578 60.6 92.7578 59.7 92.3578 58.8C90.3578 56.9 85.4578 59.2 83.6578 60.7C79.9578 63.7 77.8578 67.3 76.7578 71.9C80.2578 70.9 89.3578 60.3 89.3578 60.3C89.7578 59.9 90.6578 60.2 91.5578 61.1C92.2578 61.9 92.6578 62.8 92.3578 63.3C92.1578 63.8 90.9578 66.4 91.5578 69.2C91.9578 71.6 104.958 60.7 105.158 60.6C105.558 60.2 106.358 59.7 107.158 60.5C107.958 61.4 107.858 62.2 107.458 62.6C100.858 68.5 96.9578 72 94.2578 73.4C89.6578 75.8 86.1578 74.4 86.2578 69.5C82.6578 72.9 78.9578 76 76.7578 75C75.9578 74.7 75.3578 74.1 74.7578 73.5C73.7578 72.2 73.3578 70.8 73.5578 69.3C73.6578 68.1 74.0578 66.8 74.6578 65.5C75.9578 62.7 78.2578 59.6 80.8578 57.5C85.3578 53.8 93.5578 53.6 95.2578 59.4ZM104.132 62.4L103.932 62.2C103.132 61.3 102.932 60.3 103.332 60L108.632 54.8C109.032 54.4 110.832 55.3 111.632 56.2C112.332 57 112.632 57.9 112.332 58.3C112.232 58.4 105.532 67.7 103.532 72.6C102.932 74 104.332 73.6 105.332 72.6C109.932 69.3 116.532 62.2 122.232 54.6L122.832 53.7C123.232 53.2 123.732 53.2 124.532 54.1C125.432 54.9 126.432 56.7 126.032 57.1C126.032 57.2 122.032 62.3 122.032 64.4C122.032 64.5 125.332 64 128.532 61.4C128.932 61.1 130.132 59.9 130.932 60.8C131.732 61.7 131.732 62.3 131.332 62.7C131.332 62.7 121.732 71.1 118.732 64.9L118.632 64.7C114.932 68.7 111.332 72 108.432 74C106.932 75.1 105.632 75.9 104.632 76.3C103.032 76.8 101.532 76.5 100.332 75.1C99.832 74.5 99.532 73.9 99.432 73.2C98.932 71 101.532 66.4 104.132 62.4ZM133.239 60.5C134.639 60.1 136.139 59.5 137.739 58.8C139.839 57.7 141.639 55.6 142.739 53.7C142.939 53.3 143.039 53 143.239 52.6C142.139 53.1 140.839 53.9 139.339 55C137.339 56.5 135.039 58.4 133.239 60.5ZM140.339 62.1C135.639 64.5 130.339 65.1 130.039 65.1C123.239 79.7 150.239 67.3 153.339 61.7C153.639 61.1 154.639 60.4 155.539 61.2C156.339 62 156.339 62.4 156.039 63C153.239 67.9 137.639 78.7 130.739 74.8C127.339 72.9 125.239 68.9 126.039 65C126.539 62.5 128.039 59.9 130.039 57.6C132.039 55.4 134.339 53.3 136.539 51.7C139.439 49.7 142.139 48.5 143.239 48.7C144.139 48.9 144.939 49.4 145.639 50.2C146.639 51.3 147.039 52.6 146.839 53.8C146.739 54.7 146.339 55.6 145.839 56.6C144.739 58.7 142.739 60.9 140.339 62.1ZM214.277 16.3C214.577 15.9 215.577 16.1 216.377 17C217.177 17.8 217.577 18.9 217.277 19.3C217.277 19.4 209.977 29.5 202.177 41.2H227.677C228.377 41.2 229.477 42 229.977 42.9C230.577 43.9 230.477 44.7 229.777 44.7H199.877C197.777 47.9 195.677 51.2 193.677 54.4V54.5C193.677 54.9 193.477 55.1 193.277 55.1C187.177 65 183.877 70.7 184.977 72.7C186.777 76.1 207.077 59.9 207.077 59.8C207.477 59.5 208.077 59.3 208.877 60.2C209.677 61.1 209.077 61.6 208.677 61.9C208.577 62 185.877 84.4 180.977 75.4C179.477 72.6 184.077 63 190.477 52.4C190.377 52.4 191.077 51.3 191.077 51.3C191.277 43.7 165.677 44.7 165.677 44.7C164.977 44.7 163.877 43.9 163.377 42.9C162.777 42 162.877 41.2 163.577 41.2H197.377C205.777 28.1 214.177 16.4 214.277 16.3ZM192.177 49.5C193.177 47.9 194.177 46.3 195.177 44.7L182.677 44.2C185.677 45.4 190.577 47.4 192.177 49.5ZM228.983 23.9C229.283 23.4 230.283 23.7 231.083 24.5C231.983 25.3 232.383 26.4 232.083 26.9L210.183 62.4C215.683 58.2 221.283 55.7 221.883 62.3C221.983 63.2 222.083 69.7 222.083 69.7C222.483 70.2 225.683 69.4 234.483 61.2C234.883 60.8 235.483 59.9 236.283 60.7C237.083 61.6 237.083 62.3 236.683 62.7C226.783 71.9 221.983 74.2 219.683 71.8C217.283 69.2 218.083 64.5 217.783 61C217.483 58.5 201.583 76.4 201.483 76.5C201.183 76.9 200.283 76.6 199.483 75.8C198.583 75 198.183 73.9 198.483 73.4L228.983 23.9ZM238.415 60.5C239.815 60.1 241.315 59.5 242.915 58.8C245.015 57.7 246.815 55.6 247.915 53.7C248.115 53.3 248.215 53 248.415 52.6C247.315 53.1 246.015 53.9 244.515 55C242.515 56.5 240.215 58.4 238.415 60.5ZM245.515 62.1C240.815 64.5 235.515 65.1 235.215 65.1C228.415 79.7 255.415 67.3 258.515 61.7C258.815 61.1 259.815 60.4 260.715 61.2C261.515 62 261.515 62.4 261.215 63C258.415 67.9 242.815 78.7 235.915 74.8C232.515 72.9 230.415 68.9 231.215 65C231.715 62.5 233.215 59.9 235.215 57.6C237.215 55.4 239.515 53.3 241.715 51.7C244.615 49.7 247.315 48.5 248.415 48.7C249.315 48.9 250.115 49.4 250.815 50.2C251.815 51.3 252.215 52.6 252.015 53.8C251.915 54.7 251.515 55.6 251.015 56.6C249.915 58.7 247.915 60.9 245.515 62.1ZM306.153 65.3C306.053 65.8 305.453 65.9 304.753 65.5L304.653 65.7C301.053 68.8 297.853 71.3 295.353 72.9C291.953 75 286.253 75.5 286.553 69.8C286.653 68.3 287.353 66.4 288.453 64.5C290.453 61.2 294.753 55.7 298.953 55.9C302.853 55.8 304.053 57.8 305.053 59.3C308.753 55.8 312.553 51.7 316.153 47.4C324.353 37.6 329.953 29.5 332.653 25.3L334.753 22.1C335.053 21.6 335.953 21.8 336.853 22.7C337.653 23.5 338.153 24.5 337.853 25.1C337.853 25.1 337.053 26.4 335.453 28.8C325.653 44.2 288.553 102.7 289.953 106C290.353 107 289.953 107.5 289.153 107.3C288.353 107.1 287.353 106.2 287.053 105.2C285.853 102.4 299.153 79.6 311.953 58.5C310.053 60.5 308.153 62.4 306.253 64.1C306.253 64.8 306.153 65.2 306.153 65.3ZM302.853 61.4C302.653 60.7 302.153 59.9 300.853 59.9C297.253 59.7 293.253 64.6 291.553 67.4C290.753 68.8 290.153 70.1 289.953 71.1C290.553 70.8 291.453 70.3 292.553 69.6C295.053 68.1 298.253 65.6 301.753 62.5L302.853 61.4ZM339.008 59.4C339.408 60.4 339.108 61 338.308 60.8C337.508 60.6 336.508 59.7 336.108 58.8C334.108 56.9 329.208 59.2 327.408 60.7C323.708 63.7 321.608 67.3 320.508 71.9C324.008 70.9 333.108 60.3 333.108 60.3C333.508 59.9 334.408 60.2 335.308 61.1C336.008 61.9 336.408 62.8 336.108 63.3C335.908 63.8 334.708 66.4 335.308 69.2C335.708 71.6 348.708 60.7 348.908 60.6C349.308 60.2 350.108 59.7 350.908 60.5C351.708 61.4 351.608 62.2 351.208 62.6C344.608 68.5 340.708 72 338.008 73.4C333.408 75.8 329.908 74.4 330.008 69.5C326.408 72.9 322.708 76 320.508 75C319.708 74.7 319.108 74.1 318.508 73.5C317.508 72.2 317.108 70.8 317.308 69.3C317.408 68.1 317.808 66.8 318.408 65.5C319.708 62.7 322.008 59.6 324.608 57.5C329.108 53.8 337.308 53.6 339.008 59.4ZM376.582 16.3C376.882 15.9 377.882 16.1 378.682 17C379.482 17.8 379.882 18.9 379.582 19.3C379.582 19.4 372.282 29.5 364.482 41.2H389.982C390.682 41.2 391.782 42 392.282 42.9C392.882 43.9 392.782 44.7 392.082 44.7H362.182C360.082 47.9 357.982 51.2 355.982 54.4V54.5C355.982 54.9 355.782 55.1 355.582 55.1C349.482 65 346.182 70.7 347.282 72.7C349.082 76.1 369.382 59.9 369.382 59.8C369.782 59.5 370.382 59.3 371.182 60.2C371.982 61.1 371.382 61.6 370.982 61.9C370.882 62 348.182 84.4 343.282 75.4C341.782 72.6 346.382 63 352.782 52.4C352.682 52.4 353.382 51.3 353.382 51.3C353.582 43.7 327.982 44.7 327.982 44.7C327.282 44.7 326.182 43.9 325.682 42.9C325.082 42 325.182 41.2 325.882 41.2H359.682C368.082 28.1 376.482 16.4 376.582 16.3ZM354.482 49.5C355.482 47.9 356.482 46.3 357.482 44.7L344.982 44.2C347.982 45.4 352.882 47.4 354.482 49.5ZM372.888 60.5C374.288 60.1 375.787 59.5 377.388 58.8C379.488 57.7 381.288 55.6 382.387 53.7C382.588 53.3 382.688 53 382.888 52.6C381.788 53.1 380.488 53.9 378.988 55C376.988 56.5 374.688 58.4 372.888 60.5ZM379.988 62.1C375.288 64.5 369.988 65.1 369.688 65.1C362.887 79.7 389.888 67.3 392.988 61.7C393.288 61.1 394.288 60.4 395.188 61.2C395.988 62 395.988 62.4 395.688 63C392.888 67.9 377.288 78.7 370.388 74.8C366.987 72.9 364.887 68.9 365.687 65C366.187 62.5 367.687 59.9 369.688 57.6C371.688 55.4 373.988 53.3 376.188 51.7C379.088 49.7 381.788 48.5 382.888 48.7C383.788 48.9 384.588 49.4 385.288 50.2C386.288 51.3 386.688 52.6 386.488 53.8C386.388 54.7 385.988 55.6 385.488 56.6C384.388 58.7 382.387 60.9 379.988 62.1Z" fill="black"/>
<path d="M71.43 146.26L69.78 147.85C68.58 146.69 67.26 145.8 65.82 145.18C64.4 144.56 62.93 144.25 61.41 144.25C59.89 144.25 58.37 144.66 56.85 145.48C55.33 146.3 54.14 147.41 53.28 148.81C52.44 150.19 52.02 151.69 52.02 153.31C52.02 155.83 52.96 158.03 54.84 159.91C56.74 161.77 59.11 162.7 61.95 162.7C64.11 162.7 65.96 162.1 67.5 160.9C69.06 159.68 69.99 158.03 70.29 155.95H63.42V153.88H72.72C72.66 157.3 71.64 159.97 69.66 161.89C67.68 163.79 65.09 164.74 61.89 164.74C58.21 164.74 55.26 163.61 53.04 161.35C50.84 159.09 49.74 156.44 49.74 153.4C49.74 150.34 50.84 147.7 53.04 145.48C55.24 143.24 58.13 142.12 61.71 142.12C65.29 142.12 68.53 143.5 71.43 146.26ZM78.8421 156.34C78.8421 154 79.6421 152 81.2421 150.34C82.8621 148.68 84.8221 147.85 87.1221 147.85C89.4421 147.85 91.4021 148.68 93.0021 150.34C94.6221 152 95.4321 153.99 95.4321 156.31C95.4321 158.63 94.6321 160.62 93.0321 162.28C91.4521 163.92 89.4921 164.74 87.1521 164.74C84.8121 164.74 82.8421 163.92 81.2421 162.28C79.6421 160.62 78.8421 158.64 78.8421 156.34ZM93.3621 156.37C93.3621 154.61 92.7421 153.09 91.5021 151.81C90.2821 150.51 88.8221 149.86 87.1221 149.86C85.4421 149.86 83.9921 150.51 82.7721 151.81C81.5521 153.09 80.9421 154.62 80.9421 156.4C80.9421 158.18 81.5321 159.69 82.7121 160.93C83.8921 162.17 85.3521 162.79 87.0921 162.79C88.8521 162.79 90.3321 162.17 91.5321 160.93C92.7521 159.67 93.3621 158.15 93.3621 156.37ZM115.81 159.04L117.55 159.94C115.83 163.14 113.29 164.74 109.93 164.74C107.53 164.74 105.55 163.92 103.99 162.28C102.43 160.62 101.65 158.63 101.65 156.31C101.65 153.99 102.43 152 103.99 150.34C105.57 148.68 107.51 147.85 109.81 147.85C112.13 147.85 114.07 148.62 115.63 150.16C117.21 151.7 118.03 153.8 118.09 156.46H103.75C103.81 158.38 104.41 159.93 105.55 161.11C106.71 162.27 108.11 162.85 109.75 162.85C112.45 162.85 114.47 161.58 115.81 159.04ZM115.81 154.69C115.53 153.17 114.83 151.98 113.71 151.12C112.59 150.26 111.3 149.83 109.84 149.83C106.84 149.83 104.88 151.45 103.96 154.69H115.81ZM140.962 142.12V164.2H138.952V161.47C137.132 163.65 135.042 164.74 132.682 164.74C130.342 164.74 128.372 163.91 126.772 162.25C125.172 160.59 124.372 158.6 124.372 156.28C124.372 153.96 125.182 151.98 126.802 150.34C128.422 148.68 130.362 147.85 132.622 147.85C135.222 147.85 137.332 148.96 138.952 151.18V142.12H140.962ZM139.072 156.34C139.072 154.52 138.472 152.98 137.272 151.72C136.072 150.46 134.572 149.83 132.772 149.83C130.972 149.83 129.462 150.48 128.242 151.78C127.042 153.06 126.442 154.58 126.442 156.34C126.442 158.08 127.062 159.6 128.302 160.9C129.542 162.2 131.002 162.85 132.682 162.85C134.382 162.85 135.872 162.24 137.152 161.02C138.432 159.78 139.072 158.22 139.072 156.34ZM162.159 159.04L163.899 159.94C162.179 163.14 159.639 164.74 156.279 164.74C153.879 164.74 151.899 163.92 150.339 162.28C148.779 160.62 147.999 158.63 147.999 156.31C147.999 153.99 148.779 152 150.339 150.34C151.919 148.68 153.859 147.85 156.159 147.85C158.479 147.85 160.419 148.62 161.979 150.16C163.559 151.7 164.379 153.8 164.439 156.46H150.099C150.159 158.38 150.759 159.93 151.899 161.11C153.059 162.27 154.459 162.85 156.099 162.85C158.799 162.85 160.819 161.58 162.159 159.04ZM162.159 154.69C161.879 153.17 161.179 151.98 160.059 151.12C158.939 150.26 157.649 149.83 156.189 149.83C153.189 149.83 151.229 151.45 150.309 154.69H162.159ZM171.111 142.12H173.151V164.2H171.111V142.12ZM193.977 159.04L195.717 159.94C193.997 163.14 191.457 164.74 188.097 164.74C185.697 164.74 183.717 163.92 182.157 162.28C180.597 160.62 179.817 158.63 179.817 156.31C179.817 153.99 180.597 152 182.157 150.34C183.737 148.68 185.677 147.85 187.977 147.85C190.297 147.85 192.237 148.62 193.797 150.16C195.377 151.7 196.197 153.8 196.257 156.46H181.917C181.977 158.38 182.577 159.93 183.717 161.11C184.877 162.27 186.277 162.85 187.917 162.85C190.617 162.85 192.637 161.58 193.977 159.04ZM193.977 154.69C193.697 153.17 192.997 151.98 191.877 151.12C190.757 150.26 189.467 149.83 188.007 149.83C185.007 149.83 183.047 151.45 182.127 154.69H193.977ZM230.528 156.22L231.998 157.78C230.938 158.72 230.088 159.44 229.448 159.94C230.608 161.1 231.968 162.52 233.528 164.2H230.528L227.768 161.32C225.968 162.68 224.508 163.59 223.388 164.05C222.268 164.51 221.048 164.74 219.728 164.74C218.108 164.74 216.778 164.27 215.738 163.33C214.718 162.37 214.208 161.2 214.208 159.82C214.208 158.44 214.668 157.18 215.588 156.04C216.508 154.88 217.778 153.67 219.398 152.41C218.278 151.11 217.528 150.11 217.148 149.41C216.788 148.69 216.608 148 216.608 147.34C216.608 146.2 217.068 145.27 217.988 144.55C218.908 143.81 220.058 143.44 221.438 143.44C222.838 143.44 223.978 143.83 224.858 144.61C225.738 145.39 226.178 146.3 226.178 147.34C226.178 148.08 225.918 148.86 225.398 149.68C224.898 150.5 223.898 151.54 222.398 152.8L227.918 158.47C228.998 157.57 229.868 156.82 230.528 156.22ZM221.078 151.18C223.018 149.64 223.988 148.36 223.988 147.34C223.988 146.84 223.738 146.41 223.238 146.05C222.758 145.67 222.138 145.48 221.378 145.48C220.638 145.48 220.018 145.66 219.518 146.02C219.018 146.38 218.768 146.85 218.768 147.43C218.768 148.23 219.538 149.48 221.078 151.18ZM220.808 154.06C218.948 155.46 217.738 156.57 217.178 157.39C216.638 158.19 216.368 158.97 216.368 159.73C216.368 160.47 216.718 161.16 217.418 161.8C218.118 162.42 218.928 162.73 219.848 162.73C220.768 162.73 221.698 162.52 222.638 162.1C223.578 161.66 224.798 160.9 226.298 159.82L220.808 154.06ZM250.714 164.2V142.66H255.184C258.244 142.66 260.484 142.89 261.904 143.35C263.344 143.79 264.584 144.5 265.624 145.48C266.664 146.44 267.464 147.62 268.024 149.02C268.584 150.42 268.864 152.06 268.864 153.94C268.864 155.8 268.424 157.56 267.544 159.22C266.684 160.86 265.504 162.1 264.004 162.94C262.524 163.78 260.384 164.2 257.584 164.2H250.714ZM252.784 162.16H255.274C257.874 162.16 259.754 162.03 260.914 161.77C262.094 161.51 263.124 161 264.004 160.24C264.884 159.46 265.554 158.52 266.014 157.42C266.474 156.32 266.704 155.06 266.704 153.64C266.704 152.22 266.434 150.91 265.894 149.71C265.374 148.51 264.624 147.52 263.644 146.74C262.664 145.96 261.504 145.44 260.164 145.18C258.844 144.9 256.894 144.76 254.314 144.76H252.784V162.16ZM291.728 148.27V164.2H289.718V161.47C287.898 163.65 285.818 164.74 283.478 164.74C281.138 164.74 279.158 163.91 277.538 162.25C275.938 160.57 275.138 158.58 275.138 156.28C275.138 153.96 275.948 151.98 277.568 150.34C279.188 148.68 281.128 147.85 283.388 147.85C285.988 147.85 288.098 148.96 289.718 151.18V148.27H291.728ZM289.838 156.31C289.838 154.49 289.228 152.96 288.008 151.72C286.788 150.46 285.288 149.83 283.508 149.83C281.748 149.83 280.258 150.48 279.038 151.78C277.818 153.06 277.208 154.58 277.208 156.34C277.208 158.1 277.828 159.63 279.068 160.93C280.308 162.21 281.788 162.85 283.508 162.85C285.248 162.85 286.738 162.23 287.978 160.99C289.218 159.75 289.838 158.19 289.838 156.31ZM299.486 148.27H301.556V151.12C303.196 148.94 305.186 147.85 307.526 147.85C308.726 147.85 309.806 148.18 310.766 148.84C311.726 149.48 312.406 150.33 312.806 151.39C313.206 152.43 313.406 153.97 313.406 156.01V164.2H311.366V156.61C311.366 154.75 311.276 153.49 311.096 152.83C310.936 152.17 310.676 151.61 310.316 151.15C309.976 150.69 309.536 150.34 308.996 150.1C308.456 149.86 307.796 149.74 307.016 149.74C306.256 149.74 305.506 149.93 304.766 150.31C304.026 150.69 303.396 151.22 302.876 151.9C302.356 152.58 302.006 153.28 301.826 154C301.646 154.72 301.556 156.17 301.556 158.35V164.2H299.486V148.27ZM324.817 161.68C324.817 162.22 324.887 162.54 325.027 162.64C325.167 162.74 325.527 162.79 326.107 162.79H327.337V164.53C326.497 164.67 325.837 164.74 325.357 164.74C324.457 164.74 323.797 164.52 323.377 164.08C322.957 163.64 322.747 162.95 322.747 162.01V150.01H319.927V148.27H322.747V142.12H324.817V148.27H328.057V150.01H324.817V161.68ZM347.673 159.04L349.413 159.94C347.693 163.14 345.153 164.74 341.793 164.74C339.393 164.74 337.413 163.92 335.853 162.28C334.293 160.62 333.513 158.63 333.513 156.31C333.513 153.99 334.293 152 335.853 150.34C337.433 148.68 339.373 147.85 341.673 147.85C343.993 147.85 345.933 148.62 347.493 150.16C349.073 151.7 349.893 153.8 349.953 156.46H335.613C335.673 158.38 336.273 159.93 337.413 161.11C338.573 162.27 339.973 162.85 341.613 162.85C344.313 162.85 346.333 161.58 347.673 159.04ZM347.673 154.69C347.393 153.17 346.693 151.98 345.573 151.12C344.453 150.26 343.163 149.83 341.703 149.83C338.703 149.83 336.743 151.45 335.823 154.69H347.673Z" fill="black"/>
<path d="M107.2 200.82V199.44H114.76L108.76 212.4H114.46V213.8H106.54L112.6 200.82H107.2ZM127.509 203.18V213.8H126.169V211.98C124.956 213.433 123.569 214.16 122.009 214.16C120.449 214.16 119.129 213.607 118.049 212.5C116.983 211.38 116.449 210.053 116.449 208.52C116.449 206.973 116.989 205.653 118.069 204.56C119.149 203.453 120.443 202.9 121.949 202.9C123.683 202.9 125.089 203.64 126.169 205.12V203.18H127.509ZM126.249 208.54C126.249 207.327 125.843 206.307 125.029 205.48C124.216 204.64 123.216 204.22 122.029 204.22C120.856 204.22 119.863 204.653 119.049 205.52C118.236 206.373 117.829 207.387 117.829 208.56C117.829 209.733 118.243 210.753 119.069 211.62C119.896 212.473 120.883 212.9 122.029 212.9C123.189 212.9 124.183 212.487 125.009 211.66C125.836 210.833 126.249 209.793 126.249 208.54ZM132.962 212.12C132.962 212.48 133.008 212.693 133.102 212.76C133.195 212.827 133.435 212.86 133.822 212.86H134.642V214.02C134.082 214.113 133.642 214.16 133.322 214.16C132.722 214.16 132.282 214.013 132.002 213.72C131.722 213.427 131.582 212.967 131.582 212.34V204.34H129.702V203.18H131.582V199.08H132.962V203.18H135.122V204.34H132.962V212.12ZM145.899 210.36L147.059 210.96C145.912 213.093 144.219 214.16 141.979 214.16C140.379 214.16 139.059 213.613 138.019 212.52C136.979 211.413 136.459 210.087 136.459 208.54C136.459 206.993 136.979 205.667 138.019 204.56C139.072 203.453 140.366 202.9 141.899 202.9C143.446 202.9 144.739 203.413 145.779 204.44C146.832 205.467 147.379 206.867 147.419 208.64H137.859C137.899 209.92 138.299 210.953 139.059 211.74C139.832 212.513 140.766 212.9 141.859 212.9C143.659 212.9 145.006 212.053 145.899 210.36ZM145.899 207.46C145.712 206.447 145.246 205.653 144.499 205.08C143.752 204.507 142.892 204.22 141.919 204.22C139.919 204.22 138.612 205.3 137.999 207.46H145.899ZM149.247 203.18H150.647V204.72C151.02 204.093 151.38 203.633 151.727 203.34C152.087 203.047 152.48 202.9 152.907 202.9C153.347 202.9 153.787 203.02 154.227 203.26L153.507 204.42C153.307 204.3 153.1 204.24 152.887 204.24C152.474 204.24 152.08 204.453 151.707 204.88C151.347 205.307 151.08 205.86 150.907 206.54C150.734 207.207 150.647 208.427 150.647 210.2V213.8H149.247V203.18ZM166.183 199.08V213.8H164.843V211.98C163.629 213.433 162.236 214.16 160.663 214.16C159.103 214.16 157.789 213.607 156.723 212.5C155.656 211.393 155.123 210.067 155.123 208.52C155.123 206.973 155.663 205.653 156.743 204.56C157.823 203.453 159.116 202.9 160.623 202.9C162.356 202.9 163.763 203.64 164.843 205.12V199.08H166.183ZM164.923 208.56C164.923 207.347 164.523 206.32 163.723 205.48C162.923 204.64 161.923 204.22 160.723 204.22C159.523 204.22 158.516 204.653 157.703 205.52C156.903 206.373 156.503 207.387 156.503 208.56C156.503 209.72 156.916 210.733 157.743 211.6C158.569 212.467 159.543 212.9 160.663 212.9C161.796 212.9 162.789 212.493 163.643 211.68C164.496 210.853 164.923 209.813 164.923 208.56ZM179.654 203.18V213.8H178.314V211.98C177.101 213.433 175.714 214.16 174.154 214.16C172.594 214.16 171.274 213.607 170.194 212.5C169.127 211.38 168.594 210.053 168.594 208.52C168.594 206.973 169.134 205.653 170.214 204.56C171.294 203.453 172.587 202.9 174.094 202.9C175.827 202.9 177.234 203.64 178.314 205.12V203.18H179.654ZM178.394 208.54C178.394 207.327 177.987 206.307 177.174 205.48C176.361 204.64 175.361 204.22 174.174 204.22C173.001 204.22 172.007 204.653 171.194 205.52C170.381 206.373 169.974 207.387 169.974 208.56C169.974 209.733 170.387 210.753 171.214 211.62C172.041 212.473 173.027 212.9 174.174 212.9C175.334 212.9 176.327 212.487 177.154 211.66C177.981 210.833 178.394 209.793 178.394 208.54ZM191.826 203.18H193.206V211.38C193.206 212.833 193.08 213.9 192.826 214.58C192.573 215.26 192.206 215.827 191.726 216.28C191.246 216.733 190.666 217.08 189.986 217.32C189.306 217.56 188.56 217.68 187.746 217.68C184.973 217.68 183.146 216.573 182.266 214.36H183.746C184.52 215.747 185.833 216.44 187.686 216.44C188.58 216.44 189.353 216.267 190.006 215.92C190.673 215.573 191.14 215.133 191.406 214.6C191.686 214.053 191.826 213.207 191.826 212.06V211.6C191.28 212.28 190.633 212.787 189.886 213.12C189.14 213.453 188.353 213.62 187.526 213.62C185.98 213.62 184.693 213.093 183.666 212.04C182.64 210.987 182.126 209.747 182.126 208.32C182.126 206.84 182.673 205.567 183.766 204.5C184.86 203.433 186.18 202.9 187.726 202.9C189.286 202.9 190.653 203.607 191.826 205.02V203.18ZM191.886 208.32C191.886 207.16 191.493 206.187 190.706 205.4C189.92 204.613 188.946 204.22 187.786 204.22C186.56 204.22 185.54 204.647 184.726 205.5C183.913 206.34 183.506 207.307 183.506 208.4C183.506 209.493 183.9 210.427 184.686 211.2C185.473 211.96 186.48 212.34 187.706 212.34C188.933 212.34 189.933 211.967 190.706 211.22C191.493 210.473 191.886 209.507 191.886 208.32ZM201.703 202.76H200.243C200.51 201.573 201.017 200.667 201.763 200.04C202.523 199.4 203.443 199.08 204.523 199.08C205.617 199.08 206.563 199.44 207.363 200.16C208.177 200.88 208.583 201.753 208.583 202.78C208.583 204.02 207.97 205 206.743 205.72C207.583 206.067 208.23 206.587 208.683 207.28C209.15 207.96 209.383 208.707 209.383 209.52C209.383 210.787 208.917 211.88 207.983 212.8C207.063 213.707 205.897 214.16 204.483 214.16C203.23 214.16 202.197 213.807 201.383 213.1C200.57 212.38 200.03 211.333 199.763 209.96H201.163C201.417 210.907 201.803 211.613 202.323 212.08C202.857 212.533 203.603 212.76 204.563 212.76C205.523 212.76 206.33 212.453 206.983 211.84C207.637 211.227 207.963 210.467 207.963 209.56C207.963 208.653 207.603 207.927 206.883 207.38C206.163 206.82 205.117 206.527 203.743 206.5V205.18C204.73 205.18 205.53 204.953 206.143 204.5C206.77 204.047 207.083 203.487 207.083 202.82C207.083 202.14 206.83 201.58 206.323 201.14C205.83 200.687 205.23 200.46 204.523 200.46C203.817 200.46 203.243 200.653 202.803 201.04C202.377 201.413 202.01 201.987 201.703 202.76ZM215.638 200.22C215.638 199.913 215.751 199.647 215.978 199.42C216.204 199.193 216.471 199.08 216.778 199.08C217.084 199.08 217.344 199.193 217.558 199.42C217.784 199.633 217.898 199.893 217.898 200.2C217.898 200.507 217.784 200.773 217.558 201C217.331 201.227 217.071 201.34 216.778 201.34C216.484 201.34 216.218 201.227 215.978 201C215.751 200.773 215.638 200.513 215.638 200.22ZM216.098 203.18H217.478V214.76C217.478 215.627 217.364 216.26 217.138 216.66C216.911 217.073 216.584 217.28 216.158 217.28C215.731 217.28 215.258 217.18 214.738 216.98V215.76C215.124 215.933 215.411 216.02 215.598 216.02C215.784 216.02 215.911 215.907 215.978 215.68C216.058 215.453 216.098 215.013 216.098 214.36V203.18ZM229.24 213.8H227.86V211.9C226.767 213.353 225.44 214.08 223.88 214.08C223.08 214.08 222.36 213.867 221.72 213.44C221.08 213 220.627 212.433 220.36 211.74C220.093 211.033 219.96 210 219.96 208.64V203.18H221.32V208.24C221.32 209.48 221.373 210.32 221.48 210.76C221.6 211.2 221.773 211.573 222 211.88C222.24 212.187 222.54 212.42 222.9 212.58C223.26 212.74 223.693 212.82 224.2 212.82C224.72 212.82 225.227 212.693 225.72 212.44C226.213 212.187 226.633 211.833 226.98 211.38C227.327 210.927 227.56 210.46 227.68 209.98C227.8 209.5 227.86 208.533 227.86 207.08V203.18H229.24V213.8ZM231.888 199.08H233.248V213.8H231.888V199.08ZM235.252 200.22C235.252 199.913 235.359 199.647 235.572 199.42C235.799 199.193 236.065 199.08 236.372 199.08C236.692 199.08 236.959 199.193 237.172 199.42C237.399 199.633 237.512 199.9 237.512 200.22C237.512 200.527 237.399 200.793 237.172 201.02C236.959 201.233 236.692 201.34 236.372 201.34C236.065 201.34 235.799 201.227 235.572 201C235.359 200.773 235.252 200.513 235.252 200.22ZM235.692 203.18H237.072V213.8H235.692V203.18ZM241.056 211.16L242.376 211.78L240.396 215.48L239.416 215.06L241.056 211.16ZM250.643 203.94H249.263C249.329 202.473 249.816 201.3 250.723 200.42C251.629 199.527 252.723 199.08 254.003 199.08C255.296 199.08 256.363 199.5 257.203 200.34C258.056 201.167 258.483 202.18 258.483 203.38C258.483 204.273 258.243 205.1 257.763 205.86C257.296 206.62 256.583 207.52 255.623 208.56L252.043 212.42H258.683V213.8H248.923L254.403 207.88C255.363 206.84 256.049 206.02 256.463 205.42C256.876 204.82 257.083 204.133 257.083 203.36C257.083 202.587 256.776 201.907 256.163 201.32C255.563 200.733 254.809 200.44 253.903 200.44C253.009 200.44 252.263 200.747 251.663 201.36C251.076 201.96 250.736 202.82 250.643 203.94ZM264.657 214.16C263.11 214.16 261.917 213.527 261.077 212.26C260.25 210.98 259.837 209.1 259.837 206.62C259.837 204.14 260.25 202.267 261.077 201C261.917 199.72 263.104 199.08 264.637 199.08C266.17 199.08 267.384 199.733 268.277 201.04C269.184 202.333 269.637 204.193 269.637 206.62C269.637 209.047 269.184 210.913 268.277 212.22C267.37 213.513 266.164 214.16 264.657 214.16ZM264.697 200.44C263.59 200.44 262.73 200.973 262.117 202.04C261.504 203.107 261.197 204.647 261.197 206.66C261.197 210.793 262.364 212.86 264.697 212.86C265.83 212.86 266.71 212.32 267.337 211.24C267.977 210.147 268.297 208.607 268.297 206.62C268.297 204.633 267.97 203.107 267.317 202.04C266.664 200.973 265.79 200.44 264.697 200.44ZM272.391 203.94H271.011C271.078 202.473 271.564 201.3 272.471 200.42C273.378 199.527 274.471 199.08 275.751 199.08C277.044 199.08 278.111 199.5 278.951 200.34C279.804 201.167 280.231 202.18 280.231 203.38C280.231 204.273 279.991 205.1 279.511 205.86C279.044 206.62 278.331 207.52 277.371 208.56L273.791 212.42H280.431V213.8H270.671L276.151 207.88C277.111 206.84 277.798 206.02 278.211 205.42C278.624 204.82 278.831 204.133 278.831 203.36C278.831 202.587 278.524 201.907 277.911 201.32C277.311 200.733 276.558 200.44 275.651 200.44C274.758 200.44 274.011 200.747 273.411 201.36C272.824 201.96 272.484 202.82 272.391 203.94ZM284.645 199.44H287.465V213.8H286.045V200.84H283.785L284.645 199.44Z" fill="black"/>
<path d="M113.744 231.13H112.497V226.098H107.407V231.13H106.146V220.516H107.407V224.88H112.497V220.516H113.744V231.13ZM123.54 227.389H116.609C116.657 228.259 116.947 228.96 117.479 229.491C118.02 230.013 118.663 230.274 119.407 230.274C120.674 230.274 121.64 229.651 122.307 228.404L123.322 228.926C122.868 229.767 122.332 230.39 121.713 230.796C121.094 231.193 120.355 231.391 119.494 231.391C118.305 231.391 117.324 230.985 116.551 230.173C115.778 229.351 115.391 228.365 115.391 227.215C115.391 226.065 115.778 225.079 116.551 224.257C117.334 223.435 118.301 223.024 119.451 223.024C120.601 223.024 121.563 223.416 122.336 224.199C123.11 224.972 123.511 226.036 123.54 227.389ZM122.206 226.33C122.061 225.654 121.732 225.127 121.22 224.75C120.708 224.373 120.118 224.184 119.451 224.184C118.098 224.184 117.199 224.9 116.754 226.33H122.206ZM136.755 231.13H135.537V226.823C135.537 226.137 135.494 225.634 135.407 225.315C135.329 224.996 135.15 224.731 134.87 224.518C134.599 224.296 134.237 224.184 133.783 224.184C133.338 224.184 132.917 224.329 132.521 224.619C132.125 224.909 131.849 225.306 131.695 225.808C131.54 226.301 131.463 227.036 131.463 228.012V231.13H130.288V227.084C130.288 226.292 130.245 225.721 130.158 225.373C130.08 225.025 129.901 224.74 129.621 224.518C129.341 224.296 128.988 224.184 128.563 224.184C128.137 224.184 127.731 224.32 127.345 224.59C126.968 224.851 126.687 225.199 126.504 225.634C126.32 226.06 126.228 226.77 126.228 227.766V231.13H125.039V223.227H126.228V224.344C126.905 223.464 127.751 223.024 128.766 223.024C129.317 223.024 129.814 223.174 130.259 223.474C130.713 223.764 131.037 224.18 131.231 224.721C131.559 224.17 131.97 223.749 132.463 223.459C132.956 223.169 133.478 223.024 134.029 223.024C134.783 223.024 135.426 223.29 135.958 223.822C136.489 224.354 136.755 225.354 136.755 226.823V231.13ZM146.289 227.389H139.358C139.406 228.259 139.696 228.96 140.228 229.491C140.769 230.013 141.412 230.274 142.156 230.274C143.422 230.274 144.389 229.651 145.056 228.404L146.071 228.926C145.617 229.767 145.08 230.39 144.462 230.796C143.843 231.193 143.103 231.391 142.243 231.391C141.054 231.391 140.073 230.985 139.3 230.173C138.526 229.351 138.14 228.365 138.14 227.215C138.14 226.065 138.526 225.079 139.3 224.257C140.083 223.435 141.049 223.024 142.2 223.024C143.35 223.024 144.312 223.416 145.085 224.199C145.858 224.972 146.26 226.036 146.289 227.389ZM144.955 226.33C144.81 225.654 144.481 225.127 143.969 224.75C143.456 224.373 142.867 224.184 142.2 224.184C140.846 224.184 139.947 224.9 139.503 226.33H144.955ZM148.832 231.13H147.643V220.255H148.832V231.13ZM157.317 223.227L153.707 231.391H153.417L149.777 223.227H151.039L153.547 228.94L156.056 223.227H157.317ZM166.216 227.389H159.285C159.333 228.259 159.623 228.96 160.155 229.491C160.696 230.013 161.339 230.274 162.083 230.274C163.35 230.274 164.316 229.651 164.983 228.404L165.998 228.926C165.544 229.767 165.007 230.39 164.389 230.796C163.77 231.193 163.031 231.391 162.17 231.391C160.981 231.391 160 230.985 159.227 230.173C158.453 229.351 158.067 228.365 158.067 227.215C158.067 226.065 158.453 225.079 159.227 224.257C160.01 223.435 160.976 223.024 162.127 223.024C163.277 223.024 164.239 223.416 165.012 224.199C165.786 224.972 166.187 226.036 166.216 227.389ZM164.882 226.33C164.737 225.654 164.408 225.127 163.896 224.75C163.383 224.373 162.794 224.184 162.127 224.184C160.773 224.184 159.874 224.9 159.43 226.33H164.882ZM175.501 227.389H168.57C168.619 228.259 168.909 228.96 169.44 229.491C169.982 230.013 170.625 230.274 171.369 230.274C172.635 230.274 173.602 229.651 174.269 228.404L175.284 228.926C174.83 229.767 174.293 230.39 173.674 230.796C173.056 231.193 172.316 231.391 171.456 231.391C170.267 231.391 169.286 230.985 168.512 230.173C167.739 229.351 167.352 228.365 167.352 227.215C167.352 226.065 167.739 225.079 168.512 224.257C169.295 223.435 170.262 223.024 171.412 223.024C172.563 223.024 173.525 223.416 174.298 224.199C175.071 224.972 175.472 226.036 175.501 227.389ZM174.167 226.33C174.022 225.654 173.694 225.127 173.181 224.75C172.669 224.373 172.079 224.184 171.412 224.184C170.059 224.184 169.16 224.9 168.715 226.33H174.167ZM180.336 223.343L179.712 224.358C179.548 224.271 179.388 224.228 179.234 224.228C178.934 224.228 178.663 224.378 178.422 224.678C178.18 224.967 177.996 225.354 177.871 225.837C177.755 226.311 177.697 227.171 177.697 228.418V231.13H176.479V223.227H177.697V224.083C177.938 223.725 178.18 223.459 178.422 223.285C178.673 223.111 178.953 223.024 179.263 223.024C179.582 223.024 179.939 223.131 180.336 223.343ZM189.105 231.13H187.93V229.97C187.07 230.917 186.074 231.391 184.943 231.391C183.822 231.391 182.865 230.98 182.072 230.158C181.28 229.337 180.883 228.351 180.883 227.2C180.883 226.05 181.285 225.069 182.087 224.257C182.889 223.435 183.866 223.024 185.016 223.024C186.176 223.024 187.147 223.493 187.93 224.431V220.255H189.105V231.13ZM185.045 230.274C185.809 230.274 186.49 229.989 187.089 229.419C187.689 228.849 187.988 228.128 187.988 227.258C187.988 226.379 187.708 225.649 187.147 225.069C186.596 224.479 185.896 224.184 185.045 224.184C184.204 224.184 183.498 224.489 182.928 225.098C182.367 225.697 182.087 226.408 182.087 227.229C182.087 228.041 182.377 228.752 182.957 229.361C183.537 229.97 184.233 230.274 185.045 230.274ZM198.785 227.389H191.854C191.902 228.259 192.192 228.96 192.724 229.491C193.265 230.013 193.908 230.274 194.652 230.274C195.919 230.274 196.885 229.651 197.552 228.404L198.567 228.926C198.113 229.767 197.576 230.39 196.958 230.796C196.339 231.193 195.6 231.391 194.739 231.391C193.55 231.391 192.569 230.985 191.796 230.173C191.022 229.351 190.636 228.365 190.636 227.215C190.636 226.065 191.022 225.079 191.796 224.257C192.579 223.435 193.545 223.024 194.696 223.024C195.846 223.024 196.808 223.416 197.581 224.199C198.355 224.972 198.756 226.036 198.785 227.389ZM197.451 226.33C197.306 225.654 196.977 225.127 196.465 224.75C195.952 224.373 195.363 224.184 194.696 224.184C193.342 224.184 192.443 224.9 191.999 226.33H197.451ZM208.186 229.274C208.186 230.318 208.095 231.091 207.911 231.594C207.737 232.097 207.466 232.522 207.099 232.87C206.741 233.218 206.306 233.479 205.794 233.653C205.291 233.837 204.735 233.929 204.126 233.929C202.067 233.929 200.695 233.059 200.008 231.318H201.284C201.845 232.324 202.778 232.827 204.083 232.827C204.682 232.827 205.219 232.711 205.692 232.478C206.166 232.247 206.5 231.937 206.693 231.55C206.886 231.164 206.983 230.569 206.983 229.767V229.694C206.606 230.12 206.152 230.444 205.62 230.666C205.088 230.888 204.537 230.999 203.967 230.999C202.826 230.999 201.869 230.608 201.096 229.825C200.332 229.042 199.955 228.119 199.965 227.055C199.955 225.944 200.356 224.996 201.168 224.213C201.98 223.421 202.942 223.024 204.054 223.024C205.175 223.024 206.152 223.479 206.983 224.387V223.227H208.186V229.274ZM207.026 227.055C207.026 226.224 206.746 225.538 206.185 224.996C205.634 224.455 204.958 224.184 204.155 224.184C203.305 224.184 202.589 224.479 202.009 225.069C201.439 225.649 201.154 226.326 201.154 227.099C201.154 227.872 201.429 228.53 201.98 229.071C202.531 229.603 203.237 229.869 204.097 229.869C204.958 229.869 205.659 229.607 206.2 229.085C206.751 228.554 207.026 227.877 207.026 227.055ZM217.682 227.389H210.751C210.799 228.259 211.089 228.96 211.621 229.491C212.162 230.013 212.805 230.274 213.549 230.274C214.816 230.274 215.782 229.651 216.449 228.404L217.464 228.926C217.01 229.767 216.473 230.39 215.855 230.796C215.236 231.193 214.497 231.391 213.636 231.391C212.447 231.391 211.466 230.985 210.693 230.173C209.919 229.351 209.533 228.365 209.533 227.215C209.533 226.065 209.919 225.079 210.693 224.257C211.476 223.435 212.442 223.024 213.593 223.024C214.743 223.024 215.705 223.416 216.478 224.199C217.252 224.972 217.653 226.036 217.682 227.389ZM216.348 226.33C216.203 225.654 215.874 225.127 215.362 224.75C214.849 224.373 214.26 224.184 213.593 224.184C212.239 224.184 211.34 224.9 210.896 226.33H216.348ZM230.897 231.13H229.679V226.823C229.679 226.137 229.635 225.634 229.548 225.315C229.471 224.996 229.292 224.731 229.012 224.518C228.741 224.296 228.379 224.184 227.924 224.184C227.48 224.184 227.059 224.329 226.663 224.619C226.267 224.909 225.991 225.306 225.836 225.808C225.682 226.301 225.604 227.036 225.604 228.012V231.13H224.43V227.084C224.43 226.292 224.386 225.721 224.299 225.373C224.222 225.025 224.043 224.74 223.763 224.518C223.483 224.296 223.13 224.184 222.704 224.184C222.279 224.184 221.873 224.32 221.486 224.59C221.109 224.851 220.829 225.199 220.645 225.634C220.462 226.06 220.37 226.77 220.37 227.766V231.13H219.181V223.227H220.37V224.344C221.047 223.464 221.892 223.024 222.907 223.024C223.458 223.024 223.956 223.174 224.401 223.474C224.855 223.764 225.179 224.18 225.372 224.721C225.701 224.17 226.112 223.749 226.605 223.459C227.098 223.169 227.62 223.024 228.171 223.024C228.925 223.024 229.568 223.29 230.099 223.822C230.631 224.354 230.897 225.354 230.897 226.823V231.13ZM240.604 233.523H239.386V219.834H240.604V233.523ZM254.624 231.13H249.361V220.516H250.622V229.926H254.624V231.13ZM256.203 220.255C256.464 220.255 256.682 220.347 256.856 220.53C257.039 220.704 257.131 220.922 257.131 221.183C257.131 221.434 257.039 221.652 256.856 221.835C256.682 222.009 256.464 222.096 256.203 222.096C255.952 222.096 255.734 222.005 255.551 221.821C255.377 221.637 255.29 221.425 255.29 221.183C255.29 220.932 255.377 220.714 255.551 220.53C255.734 220.347 255.952 220.255 256.203 220.255ZM256.812 231.13H255.609V223.227H256.812V231.13ZM266.298 227.389H259.367C259.415 228.259 259.705 228.96 260.237 229.491C260.778 230.013 261.421 230.274 262.166 230.274C263.432 230.274 264.399 229.651 265.066 228.404L266.081 228.926C265.626 229.767 265.09 230.39 264.471 230.796C263.852 231.193 263.113 231.391 262.253 231.391C261.064 231.391 260.082 230.985 259.309 230.173C258.536 229.351 258.149 228.365 258.149 227.215C258.149 226.065 258.536 225.079 259.309 224.257C260.092 223.435 261.059 223.024 262.209 223.024C263.359 223.024 264.321 223.416 265.095 224.199C265.868 224.972 266.269 226.036 266.298 227.389ZM264.964 226.33C264.819 225.654 264.49 225.127 263.978 224.75C263.466 224.373 262.876 224.184 262.209 224.184C260.856 224.184 259.957 224.9 259.512 226.33H264.964ZM271.132 223.343L270.509 224.358C270.344 224.271 270.185 224.228 270.03 224.228C269.731 224.228 269.46 224.378 269.218 224.678C268.977 224.967 268.793 225.354 268.667 225.837C268.551 226.311 268.493 227.171 268.493 228.418V231.13H267.275V223.227H268.493V224.083C268.735 223.725 268.977 223.459 269.218 223.285C269.47 223.111 269.75 223.024 270.059 223.024C270.378 223.024 270.736 223.131 271.132 223.343ZM279.902 231.13H278.727V229.97C277.867 230.917 276.871 231.391 275.74 231.391C274.619 231.391 273.662 230.98 272.869 230.158C272.076 229.337 271.68 228.351 271.68 227.2C271.68 226.05 272.081 225.069 272.884 224.257C273.686 223.435 274.662 223.024 275.813 223.024C276.973 223.024 277.944 223.493 278.727 224.431V220.255H279.902V231.13ZM275.842 230.274C276.605 230.274 277.287 229.989 277.886 229.419C278.485 228.849 278.785 228.128 278.785 227.258C278.785 226.379 278.505 225.649 277.944 225.069C277.393 224.479 276.692 224.184 275.842 224.184C275.001 224.184 274.295 224.489 273.725 225.098C273.164 225.697 272.884 226.408 272.884 227.229C272.884 228.041 273.174 228.752 273.754 229.361C274.334 229.97 275.03 230.274 275.842 230.274ZM289.581 227.389H282.65C282.699 228.259 282.989 228.96 283.52 229.491C284.062 230.013 284.705 230.274 285.449 230.274C286.715 230.274 287.682 229.651 288.349 228.404L289.364 228.926C288.91 229.767 288.373 230.39 287.754 230.796C287.136 231.193 286.396 231.391 285.536 231.391C284.347 231.391 283.366 230.985 282.592 230.173C281.819 229.351 281.432 228.365 281.432 227.215C281.432 226.065 281.819 225.079 282.592 224.257C283.375 223.435 284.342 223.024 285.492 223.024C286.643 223.024 287.605 223.416 288.378 224.199C289.151 224.972 289.552 226.036 289.581 227.389ZM288.247 226.33C288.102 225.654 287.774 225.127 287.261 224.75C286.749 224.373 286.159 224.184 285.492 224.184C284.139 224.184 283.24 224.9 282.795 226.33H288.247Z" fill="black"/>
</svg>
